<svg class="main-svg" xmlns="http://www.w3.org/2000/svg" xmlns:xlink="http://www.w3.org/1999/xlink" width="700" height="450" style="" viewBox="0 0 700 450"><rect x="0" y="0" width="700" height="450" style="fill: rgb(255, 255, 255); fill-opacity: 1;"/><defs id="defs-b59a5c"><g class="clips"><clipPath id="clipb59a5cxyplot" class="plotclip"><rect width="514" height="227.10600000000002"/></clipPath><clipPath id="clipb59a5cx2y2plot" class="plotclip"><rect width="514" height="79.79399999999998"/></clipPath><clipPath class="axesclip" id="clipb59a5cx"><rect x="80" y="0" width="514" height="450"/></clipPath><clipPath class="axesclip" id="clipb59a5cy"><rect x="0" y="142.894" width="700" height="227.10600000000002"/></clipPath><clipPath class="axesclip" id="clipb59a5cxy"><rect x="80" y="142.894" width="514" height="227.10600000000002"/></clipPath><clipPath class="axesclip" id="clipb59a5cy2"><rect x="0" y="60" width="700" height="79.79399999999998"/></clipPath><clipPath class="axesclip" id="clipb59a5cxy2"><rect x="80" y="60" width="514" height="79.79399999999998"/></clipPath><clipPath class="axesclip" id="clipb59a5cx2"><rect x="80" y="0" width="514" height="450"/></clipPath><clipPath class="axesclip" id="clipb59a5cx2y"><rect x="80" y="142.894" width="514" height="227.10600000000002"/></clipPath><clipPath class="axesclip" id="clipb59a5cx2y2"><rect x="80" y="60" width="514" height="79.79399999999998"/></clipPath></g><g class="gradients"/></defs><g class="bglayer"><rect class="bg" x="80" y="142.894" width="514" height="227.10600000000002" style="fill: rgb(229, 236, 246); fill-opacity: 1; stroke-width: 0;"/><rect class="bg" x="80" y="60" width="514" height="79.79399999999998" style="fill: rgb(229, 236, 246); fill-opacity: 1; stroke-width: 0;"/></g><g class="layer-below"><g class="imagelayer"/><g class="shapelayer"/></g><g class="cartesianlayer"><g class="subplot xy"><g class="layer-subplot"><g class="shapelayer"/><g class="imagelayer"/></g><g class="gridlayer"><g class="x"/><g class="y"><path class="ygrid crisp" transform="translate(0,320.964)" d="M80,0h514" style="stroke: rgb(255, 255, 255); stroke-opacity: 1; stroke-width: 1px;"/><path class="ygrid crisp" transform="translate(0,271.93399999999997)" d="M80,0h514" style="stroke: rgb(255, 255, 255); stroke-opacity: 1; stroke-width: 1px;"/><path class="ygrid crisp" transform="translate(0,222.894)" d="M80,0h514" style="stroke: rgb(255, 255, 255); stroke-opacity: 1; stroke-width: 1px;"/><path class="ygrid crisp" transform="translate(0,173.864)" d="M80,0h514" style="stroke: rgb(255, 255, 255); stroke-opacity: 1; stroke-width: 1px;"/></g></g><g class="zerolinelayer"><path class="yzl zl crisp" transform="translate(0,370.004)" d="M80,0h514" style="stroke: rgb(255, 255, 255); stroke-opacity: 1; stroke-width: 2px;"/></g><path class="xlines-below"/><path class="ylines-below"/><g class="overlines-below"/><g class="xaxislayer-below"/><g class="yaxislayer-below"/><g class="overaxes-below"/><g class="plot" transform="translate(80, 142.894)" clip-path="url('#clipb59a5cxyplot')"><g class="barlayer mlayer"><g class="trace bars" shape-rendering="crispEdges" style="opacity: 1;"><g class="points"><g class="point"><path d="M82.77,227.11V222.2H94.79V227.11Z" style="vector-effect: non-scaling-stroke; opacity: 1; stroke-width: 0px; fill: rgb(99, 110, 250); fill-opacity: 1;"/></g><g class="point"><path d="M94.79,227.11V217.3H106.81V227.11Z" style="vector-effect: non-scaling-stroke; opacity: 1; stroke-width: 0px; fill: rgb(99, 110, 250); fill-opacity: 1;"/></g><g class="point"><path d="M106.81,227.11V217.3H118.82V227.11Z" style="vector-effect: non-scaling-stroke; opacity: 1; stroke-width: 0px; fill: rgb(99, 110, 250); fill-opacity: 1;"/></g><g class="point"><path d="M118.82,227.11V217.3H130.84V227.11Z" style="vector-effect: non-scaling-stroke; opacity: 1; stroke-width: 0px; fill: rgb(99, 110, 250); fill-opacity: 1;"/></g><g class="point"><path d="M130.84,227.11V207.49H142.85V227.11Z" style="vector-effect: non-scaling-stroke; opacity: 1; stroke-width: 0px; fill: rgb(99, 110, 250); fill-opacity: 1;"/></g><g class="point"><path d="M142.85,227.11V217.3H154.87V227.11Z" style="vector-effect: non-scaling-stroke; opacity: 1; stroke-width: 0px; fill: rgb(99, 110, 250); fill-opacity: 1;"/></g><g class="point"><path d="M154.87,227.11V217.3H166.88V227.11Z" style="vector-effect: non-scaling-stroke; opacity: 1; stroke-width: 0px; fill: rgb(99, 110, 250); fill-opacity: 1;"/></g><g class="point"><path d="M166.88,227.11V197.69H178.9V227.11Z" style="vector-effect: non-scaling-stroke; opacity: 1; stroke-width: 0px; fill: rgb(99, 110, 250); fill-opacity: 1;"/></g><g class="point"><path d="M178.9,227.11V227.11H190.91V227.11Z" style="vector-effect: non-scaling-stroke; opacity: 1; stroke-width: 0px; fill: rgb(99, 110, 250); fill-opacity: 1;"/></g><g class="point"><path d="M190.91,227.11V227.11H202.93V227.11Z" style="vector-effect: non-scaling-stroke; opacity: 1; stroke-width: 0px; fill: rgb(99, 110, 250); fill-opacity: 1;"/></g><g class="point"><path d="M202.93,227.11V222.2H214.95V227.11Z" style="vector-effect: non-scaling-stroke; opacity: 1; stroke-width: 0px; fill: rgb(99, 110, 250); fill-opacity: 1;"/></g><g class="point"><path d="M214.95,227.11V227.11H226.96V227.11Z" style="vector-effect: non-scaling-stroke; opacity: 1; stroke-width: 0px; fill: rgb(99, 110, 250); fill-opacity: 1;"/></g><g class="point"><path d="M226.96,227.11V227.11H238.98V227.11Z" style="vector-effect: non-scaling-stroke; opacity: 1; stroke-width: 0px; fill: rgb(99, 110, 250); fill-opacity: 1;"/></g><g class="point"><path d="M238.98,227.11V227.11H250.99V227.11Z" style="vector-effect: non-scaling-stroke; opacity: 1; stroke-width: 0px; fill: rgb(99, 110, 250); fill-opacity: 1;"/></g><g class="point"><path d="M250.99,227.11V222.2H263.01V227.11Z" style="vector-effect: non-scaling-stroke; opacity: 1; stroke-width: 0px; fill: rgb(99, 110, 250); fill-opacity: 1;"/></g><g class="point"><path d="M263.01,227.11V227.11H275.02V227.11Z" style="vector-effect: non-scaling-stroke; opacity: 1; stroke-width: 0px; fill: rgb(99, 110, 250); fill-opacity: 1;"/></g><g class="point"><path d="M275.02,227.11V227.11H287.04V227.11Z" style="vector-effect: non-scaling-stroke; opacity: 1; stroke-width: 0px; fill: rgb(99, 110, 250); fill-opacity: 1;"/></g><g class="point"><path d="M287.04,227.11V207.49H299.05V227.11Z" style="vector-effect: non-scaling-stroke; opacity: 1; stroke-width: 0px; fill: rgb(99, 110, 250); fill-opacity: 1;"/></g><g class="point"><path d="M299.05,227.11V207.49H311.07V227.11Z" style="vector-effect: non-scaling-stroke; opacity: 1; stroke-width: 0px; fill: rgb(99, 110, 250); fill-opacity: 1;"/></g><g class="point"><path d="M311.07,227.11V168.26H323.09V227.11Z" style="vector-effect: non-scaling-stroke; opacity: 1; stroke-width: 0px; fill: rgb(99, 110, 250); fill-opacity: 1;"/></g><g class="point"><path d="M323.09,227.11V173.17H335.1V227.11Z" style="vector-effect: non-scaling-stroke; opacity: 1; stroke-width: 0px; fill: rgb(99, 110, 250); fill-opacity: 1;"/></g><g class="point"><path d="M335.1,227.11V168.26H347.12V227.11Z" style="vector-effect: non-scaling-stroke; opacity: 1; stroke-width: 0px; fill: rgb(99, 110, 250); fill-opacity: 1;"/></g><g class="point"><path d="M347.12,227.11V182.98H359.13V227.11Z" style="vector-effect: non-scaling-stroke; opacity: 1; stroke-width: 0px; fill: rgb(99, 110, 250); fill-opacity: 1;"/></g><g class="point"><path d="M359.13,227.11V163.36H371.15V227.11Z" style="vector-effect: non-scaling-stroke; opacity: 1; stroke-width: 0px; fill: rgb(99, 110, 250); fill-opacity: 1;"/></g><g class="point"><path d="M371.15,227.11V168.26H383.16V227.11Z" style="vector-effect: non-scaling-stroke; opacity: 1; stroke-width: 0px; fill: rgb(99, 110, 250); fill-opacity: 1;"/></g><g class="point"><path d="M383.16,227.11V182.98H395.18V227.11Z" style="vector-effect: non-scaling-stroke; opacity: 1; stroke-width: 0px; fill: rgb(99, 110, 250); fill-opacity: 1;"/></g><g class="point"><path d="M395.18,227.11V187.88H407.19V227.11Z" style="vector-effect: non-scaling-stroke; opacity: 1; stroke-width: 0px; fill: rgb(99, 110, 250); fill-opacity: 1;"/></g><g class="point"><path d="M407.19,227.11V168.26H419.21V227.11Z" style="vector-effect: non-scaling-stroke; opacity: 1; stroke-width: 0px; fill: rgb(99, 110, 250); fill-opacity: 1;"/></g><g class="point"><path d="M419.21,227.11V158.46H431.23V227.11Z" style="vector-effect: non-scaling-stroke; opacity: 1; stroke-width: 0px; fill: rgb(99, 110, 250); fill-opacity: 1;"/></g><g class="point"><path d="M431.23,227.11V192.78H443.24V227.11Z" style="vector-effect: non-scaling-stroke; opacity: 1; stroke-width: 0px; fill: rgb(99, 110, 250); fill-opacity: 1;"/></g><g class="point"><path d="M443.24,227.11V212.4H455.26V227.11Z" style="vector-effect: non-scaling-stroke; opacity: 1; stroke-width: 0px; fill: rgb(99, 110, 250); fill-opacity: 1;"/></g><g class="point"><path d="M455.26,227.11V217.3H467.27V227.11Z" style="vector-effect: non-scaling-stroke; opacity: 1; stroke-width: 0px; fill: rgb(99, 110, 250); fill-opacity: 1;"/></g><g class="point"><path d="M467.27,227.11V222.2H479.29V227.11Z" style="vector-effect: non-scaling-stroke; opacity: 1; stroke-width: 0px; fill: rgb(99, 110, 250); fill-opacity: 1;"/></g><g class="point"><path d="M479.29,227.11V222.2H491.3V227.11Z" style="vector-effect: non-scaling-stroke; opacity: 1; stroke-width: 0px; fill: rgb(99, 110, 250); fill-opacity: 1;"/></g></g></g><g class="trace bars" shape-rendering="crispEdges" style="opacity: 1;"><g class="points"><g class="point"><path d="M82.77,222.2V217.3H94.79V222.2Z" style="vector-effect: non-scaling-stroke; opacity: 1; stroke-width: 0px; fill: rgb(239, 85, 59); fill-opacity: 1;"/></g><g class="point"><path d="M94.79,217.3V212.4H106.81V217.3Z" style="vector-effect: non-scaling-stroke; opacity: 1; stroke-width: 0px; fill: rgb(239, 85, 59); fill-opacity: 1;"/></g><g class="point"><path d="M106.81,217.3V217.3H118.82V217.3Z" style="vector-effect: non-scaling-stroke; opacity: 1; stroke-width: 0px; fill: rgb(239, 85, 59); fill-opacity: 1;"/></g><g class="point"><path d="M118.82,217.3V202.59H130.84V217.3Z" style="vector-effect: non-scaling-stroke; opacity: 1; stroke-width: 0px; fill: rgb(239, 85, 59); fill-opacity: 1;"/></g><g class="point"><path d="M130.84,207.49V192.78H142.85V207.49Z" style="vector-effect: non-scaling-stroke; opacity: 1; stroke-width: 0px; fill: rgb(239, 85, 59); fill-opacity: 1;"/></g><g class="point"><path d="M142.85,217.3V202.59H154.87V217.3Z" style="vector-effect: non-scaling-stroke; opacity: 1; stroke-width: 0px; fill: rgb(239, 85, 59); fill-opacity: 1;"/></g><g class="point"><path d="M154.87,217.3V202.59H166.88V217.3Z" style="vector-effect: non-scaling-stroke; opacity: 1; stroke-width: 0px; fill: rgb(239, 85, 59); fill-opacity: 1;"/></g><g class="point"><path d="M166.88,197.69V182.98H178.9V197.69Z" style="vector-effect: non-scaling-stroke; opacity: 1; stroke-width: 0px; fill: rgb(239, 85, 59); fill-opacity: 1;"/></g><g class="point"><path d="M178.9,227.11V212.4H190.91V227.11Z" style="vector-effect: non-scaling-stroke; opacity: 1; stroke-width: 0px; fill: rgb(239, 85, 59); fill-opacity: 1;"/></g><g class="point"><path d="M190.91,227.11V222.2H202.93V227.11Z" style="vector-effect: non-scaling-stroke; opacity: 1; stroke-width: 0px; fill: rgb(239, 85, 59); fill-opacity: 1;"/></g><g class="point"><path d="M202.93,222.2V217.3H214.95V222.2Z" style="vector-effect: non-scaling-stroke; opacity: 1; stroke-width: 0px; fill: rgb(239, 85, 59); fill-opacity: 1;"/></g><g class="point"><path d="M214.95,227.11V227.11H226.96V227.11Z" style="vector-effect: non-scaling-stroke; opacity: 1; stroke-width: 0px; fill: rgb(239, 85, 59); fill-opacity: 1;"/></g><g class="point"><path d="M226.96,227.11V227.11H238.98V227.11Z" style="vector-effect: non-scaling-stroke; opacity: 1; stroke-width: 0px; fill: rgb(239, 85, 59); fill-opacity: 1;"/></g><g class="point"><path d="M238.98,227.11V227.11H250.99V227.11Z" style="vector-effect: non-scaling-stroke; opacity: 1; stroke-width: 0px; fill: rgb(239, 85, 59); fill-opacity: 1;"/></g><g class="point"><path d="M250.99,222.2V217.3H263.01V222.2Z" style="vector-effect: non-scaling-stroke; opacity: 1; stroke-width: 0px; fill: rgb(239, 85, 59); fill-opacity: 1;"/></g><g class="point"><path d="M263.01,227.11V217.3H275.02V227.11Z" style="vector-effect: non-scaling-stroke; opacity: 1; stroke-width: 0px; fill: rgb(239, 85, 59); fill-opacity: 1;"/></g><g class="point"><path d="M275.02,227.11V222.2H287.04V227.11Z" style="vector-effect: non-scaling-stroke; opacity: 1; stroke-width: 0px; fill: rgb(239, 85, 59); fill-opacity: 1;"/></g><g class="point"><path d="M287.04,207.49V187.88H299.05V207.49Z" style="vector-effect: non-scaling-stroke; opacity: 1; stroke-width: 0px; fill: rgb(239, 85, 59); fill-opacity: 1;"/></g><g class="point"><path d="M299.05,207.49V187.88H311.07V207.49Z" style="vector-effect: non-scaling-stroke; opacity: 1; stroke-width: 0px; fill: rgb(239, 85, 59); fill-opacity: 1;"/></g><g class="point"><path d="M311.07,168.26V133.94H323.09V168.26Z" style="vector-effect: non-scaling-stroke; opacity: 1; stroke-width: 0px; fill: rgb(239, 85, 59); fill-opacity: 1;"/></g><g class="point"><path d="M323.09,173.17V138.84H335.1V173.17Z" style="vector-effect: non-scaling-stroke; opacity: 1; stroke-width: 0px; fill: rgb(239, 85, 59); fill-opacity: 1;"/></g><g class="point"><path d="M335.1,168.26V129.04H347.12V168.26Z" style="vector-effect: non-scaling-stroke; opacity: 1; stroke-width: 0px; fill: rgb(239, 85, 59); fill-opacity: 1;"/></g><g class="point"><path d="M347.12,182.98V138.84H359.13V182.98Z" style="vector-effect: non-scaling-stroke; opacity: 1; stroke-width: 0px; fill: rgb(239, 85, 59); fill-opacity: 1;"/></g><g class="point"><path d="M359.13,163.36V104.52H371.15V163.36Z" style="vector-effect: non-scaling-stroke; opacity: 1; stroke-width: 0px; fill: rgb(239, 85, 59); fill-opacity: 1;"/></g><g class="point"><path d="M371.15,168.26V129.04H383.16V168.26Z" style="vector-effect: non-scaling-stroke; opacity: 1; stroke-width: 0px; fill: rgb(239, 85, 59); fill-opacity: 1;"/></g><g class="point"><path d="M383.16,182.98V138.84H395.18V182.98Z" style="vector-effect: non-scaling-stroke; opacity: 1; stroke-width: 0px; fill: rgb(239, 85, 59); fill-opacity: 1;"/></g><g class="point"><path d="M395.18,187.88V148.65H407.19V187.88Z" style="vector-effect: non-scaling-stroke; opacity: 1; stroke-width: 0px; fill: rgb(239, 85, 59); fill-opacity: 1;"/></g><g class="point"><path d="M407.19,168.26V70.2H419.21V168.26Z" style="vector-effect: non-scaling-stroke; opacity: 1; stroke-width: 0px; fill: rgb(239, 85, 59); fill-opacity: 1;"/></g><g class="point"><path d="M419.21,158.46V129.04H431.23V158.46Z" style="vector-effect: non-scaling-stroke; opacity: 1; stroke-width: 0px; fill: rgb(239, 85, 59); fill-opacity: 1;"/></g><g class="point"><path d="M431.23,192.78V143.75H443.24V192.78Z" style="vector-effect: non-scaling-stroke; opacity: 1; stroke-width: 0px; fill: rgb(239, 85, 59); fill-opacity: 1;"/></g><g class="point"><path d="M443.24,212.4V178.07H455.26V212.4Z" style="vector-effect: non-scaling-stroke; opacity: 1; stroke-width: 0px; fill: rgb(239, 85, 59); fill-opacity: 1;"/></g><g class="point"><path d="M455.26,217.3V202.59H467.27V217.3Z" style="vector-effect: non-scaling-stroke; opacity: 1; stroke-width: 0px; fill: rgb(239, 85, 59); fill-opacity: 1;"/></g><g class="point"><path d="M467.27,222.2V197.69H479.29V222.2Z" style="vector-effect: non-scaling-stroke; opacity: 1; stroke-width: 0px; fill: rgb(239, 85, 59); fill-opacity: 1;"/></g><g class="point"><path d="M479.29,222.2V202.59H491.3V222.2Z" style="vector-effect: non-scaling-stroke; opacity: 1; stroke-width: 0px; fill: rgb(239, 85, 59); fill-opacity: 1;"/></g></g></g><g class="trace bars" shape-rendering="crispEdges" style="opacity: 1;"><g class="points"><g class="point"><path d="M22.7,227.11V222.2H34.71V227.11Z" style="vector-effect: non-scaling-stroke; opacity: 1; stroke-width: 0px; fill: rgb(0, 204, 150); fill-opacity: 1;"/></g><g class="point"><path d="M34.71,227.11V227.11H46.73V227.11Z" style="vector-effect: non-scaling-stroke; opacity: 1; stroke-width: 0px; fill: rgb(0, 204, 150); fill-opacity: 1;"/></g><g class="point"><path d="M46.73,227.11V202.59H58.74V227.11Z" style="vector-effect: non-scaling-stroke; opacity: 1; stroke-width: 0px; fill: rgb(0, 204, 150); fill-opacity: 1;"/></g><g class="point"><path d="M58.74,227.11V202.59H70.76V227.11Z" style="vector-effect: non-scaling-stroke; opacity: 1; stroke-width: 0px; fill: rgb(0, 204, 150); fill-opacity: 1;"/></g><g class="point"><path d="M70.76,227.11V222.2H82.77V227.11Z" style="vector-effect: non-scaling-stroke; opacity: 1; stroke-width: 0px; fill: rgb(0, 204, 150); fill-opacity: 1;"/></g><g class="point"><path d="M82.77,217.3V212.4H94.79V217.3Z" style="vector-effect: non-scaling-stroke; opacity: 1; stroke-width: 0px; fill: rgb(0, 204, 150); fill-opacity: 1;"/></g><g class="point"><path d="M94.79,212.4V197.69H106.81V212.4Z" style="vector-effect: non-scaling-stroke; opacity: 1; stroke-width: 0px; fill: rgb(0, 204, 150); fill-opacity: 1;"/></g><g class="point"><path d="M106.81,217.3V207.49H118.82V217.3Z" style="vector-effect: non-scaling-stroke; opacity: 1; stroke-width: 0px; fill: rgb(0, 204, 150); fill-opacity: 1;"/></g><g class="point"><path d="M118.82,202.59V192.78H130.84V202.59Z" style="vector-effect: non-scaling-stroke; opacity: 1; stroke-width: 0px; fill: rgb(0, 204, 150); fill-opacity: 1;"/></g><g class="point"><path d="M130.84,192.78V178.07H142.85V192.78Z" style="vector-effect: non-scaling-stroke; opacity: 1; stroke-width: 0px; fill: rgb(0, 204, 150); fill-opacity: 1;"/></g><g class="point"><path d="M142.85,202.59V187.88H154.87V202.59Z" style="vector-effect: non-scaling-stroke; opacity: 1; stroke-width: 0px; fill: rgb(0, 204, 150); fill-opacity: 1;"/></g><g class="point"><path d="M154.87,202.59V192.78H166.88V202.59Z" style="vector-effect: non-scaling-stroke; opacity: 1; stroke-width: 0px; fill: rgb(0, 204, 150); fill-opacity: 1;"/></g><g class="point"><path d="M166.88,182.98V178.07H178.9V182.98Z" style="vector-effect: non-scaling-stroke; opacity: 1; stroke-width: 0px; fill: rgb(0, 204, 150); fill-opacity: 1;"/></g><g class="point"><path d="M178.9,212.4V197.69H190.91V212.4Z" style="vector-effect: non-scaling-stroke; opacity: 1; stroke-width: 0px; fill: rgb(0, 204, 150); fill-opacity: 1;"/></g><g class="point"><path d="M190.91,222.2V207.49H202.93V222.2Z" style="vector-effect: non-scaling-stroke; opacity: 1; stroke-width: 0px; fill: rgb(0, 204, 150); fill-opacity: 1;"/></g><g class="point"><path d="M202.93,217.3V168.26H214.95V217.3Z" style="vector-effect: non-scaling-stroke; opacity: 1; stroke-width: 0px; fill: rgb(0, 204, 150); fill-opacity: 1;"/></g><g class="point"><path d="M214.95,227.11V202.59H226.96V227.11Z" style="vector-effect: non-scaling-stroke; opacity: 1; stroke-width: 0px; fill: rgb(0, 204, 150); fill-opacity: 1;"/></g><g class="point"><path d="M226.96,227.11V187.88H238.98V227.11Z" style="vector-effect: non-scaling-stroke; opacity: 1; stroke-width: 0px; fill: rgb(0, 204, 150); fill-opacity: 1;"/></g><g class="point"><path d="M238.98,227.11V168.26H250.99V227.11Z" style="vector-effect: non-scaling-stroke; opacity: 1; stroke-width: 0px; fill: rgb(0, 204, 150); fill-opacity: 1;"/></g><g class="point"><path d="M250.99,217.3V168.26H263.01V217.3Z" style="vector-effect: non-scaling-stroke; opacity: 1; stroke-width: 0px; fill: rgb(0, 204, 150); fill-opacity: 1;"/></g><g class="point"><path d="M263.01,217.3V153.55H275.02V217.3Z" style="vector-effect: non-scaling-stroke; opacity: 1; stroke-width: 0px; fill: rgb(0, 204, 150); fill-opacity: 1;"/></g><g class="point"><path d="M275.02,222.2V163.36H287.04V222.2Z" style="vector-effect: non-scaling-stroke; opacity: 1; stroke-width: 0px; fill: rgb(0, 204, 150); fill-opacity: 1;"/></g><g class="point"><path d="M287.04,187.88V138.84H299.05V187.88Z" style="vector-effect: non-scaling-stroke; opacity: 1; stroke-width: 0px; fill: rgb(0, 204, 150); fill-opacity: 1;"/></g><g class="point"><path d="M299.05,187.88V133.94H311.07V187.88Z" style="vector-effect: non-scaling-stroke; opacity: 1; stroke-width: 0px; fill: rgb(0, 204, 150); fill-opacity: 1;"/></g><g class="point"><path d="M311.07,133.94V99.62H323.09V133.94Z" style="vector-effect: non-scaling-stroke; opacity: 1; stroke-width: 0px; fill: rgb(0, 204, 150); fill-opacity: 1;"/></g><g class="point"><path d="M323.09,138.84V114.33H335.1V138.84Z" style="vector-effect: non-scaling-stroke; opacity: 1; stroke-width: 0px; fill: rgb(0, 204, 150); fill-opacity: 1;"/></g><g class="point"><path d="M335.1,129.04V104.52H347.12V129.04Z" style="vector-effect: non-scaling-stroke; opacity: 1; stroke-width: 0px; fill: rgb(0, 204, 150); fill-opacity: 1;"/></g><g class="point"><path d="M347.12,138.84V114.33H359.13V138.84Z" style="vector-effect: non-scaling-stroke; opacity: 1; stroke-width: 0px; fill: rgb(0, 204, 150); fill-opacity: 1;"/></g><g class="point"><path d="M359.13,104.52V84.91H371.15V104.52Z" style="vector-effect: non-scaling-stroke; opacity: 1; stroke-width: 0px; fill: rgb(0, 204, 150); fill-opacity: 1;"/></g><g class="point"><path d="M371.15,129.04V129.04H383.16V129.04Z" style="vector-effect: non-scaling-stroke; opacity: 1; stroke-width: 0px; fill: rgb(0, 204, 150); fill-opacity: 1;"/></g><g class="point"><path d="M383.16,138.84V138.84H395.18V138.84Z" style="vector-effect: non-scaling-stroke; opacity: 1; stroke-width: 0px; fill: rgb(0, 204, 150); fill-opacity: 1;"/></g><g class="point"><path d="M395.18,148.65V148.65H407.19V148.65Z" style="vector-effect: non-scaling-stroke; opacity: 1; stroke-width: 0px; fill: rgb(0, 204, 150); fill-opacity: 1;"/></g><g class="point"><path d="M407.19,70.2V65.29H419.21V70.2Z" style="vector-effect: non-scaling-stroke; opacity: 1; stroke-width: 0px; fill: rgb(0, 204, 150); fill-opacity: 1;"/></g><g class="point"><path d="M419.21,129.04V124.13H431.23V129.04Z" style="vector-effect: non-scaling-stroke; opacity: 1; stroke-width: 0px; fill: rgb(0, 204, 150); fill-opacity: 1;"/></g></g></g><g class="trace bars" shape-rendering="crispEdges" style="opacity: 1;"><g class="points"><g class="point"><path d="M34.71,227.11V222.2H46.73V227.11Z" style="vector-effect: non-scaling-stroke; opacity: 1; stroke-width: 0px; fill: rgb(171, 99, 250); fill-opacity: 1;"/></g><g class="point"><path d="M46.73,202.59V202.59H58.74V202.59Z" style="vector-effect: non-scaling-stroke; opacity: 1; stroke-width: 0px; fill: rgb(171, 99, 250); fill-opacity: 1;"/></g><g class="point"><path d="M58.74,202.59V202.59H70.76V202.59Z" style="vector-effect: non-scaling-stroke; opacity: 1; stroke-width: 0px; fill: rgb(171, 99, 250); fill-opacity: 1;"/></g><g class="point"><path d="M70.76,222.2V217.3H82.77V222.2Z" style="vector-effect: non-scaling-stroke; opacity: 1; stroke-width: 0px; fill: rgb(171, 99, 250); fill-opacity: 1;"/></g><g class="point"><path d="M82.77,212.4V212.4H94.79V212.4Z" style="vector-effect: non-scaling-stroke; opacity: 1; stroke-width: 0px; fill: rgb(171, 99, 250); fill-opacity: 1;"/></g><g class="point"><path d="M94.79,197.69V187.88H106.81V197.69Z" style="vector-effect: non-scaling-stroke; opacity: 1; stroke-width: 0px; fill: rgb(171, 99, 250); fill-opacity: 1;"/></g><g class="point"><path d="M106.81,207.49V192.78H118.82V207.49Z" style="vector-effect: non-scaling-stroke; opacity: 1; stroke-width: 0px; fill: rgb(171, 99, 250); fill-opacity: 1;"/></g><g class="point"><path d="M118.82,192.78V168.26H130.84V192.78Z" style="vector-effect: non-scaling-stroke; opacity: 1; stroke-width: 0px; fill: rgb(171, 99, 250); fill-opacity: 1;"/></g><g class="point"><path d="M130.84,178.07V163.36H142.85V178.07Z" style="vector-effect: non-scaling-stroke; opacity: 1; stroke-width: 0px; fill: rgb(171, 99, 250); fill-opacity: 1;"/></g><g class="point"><path d="M142.85,187.88V178.07H154.87V187.88Z" style="vector-effect: non-scaling-stroke; opacity: 1; stroke-width: 0px; fill: rgb(171, 99, 250); fill-opacity: 1;"/></g><g class="point"><path d="M154.87,192.78V173.17H166.88V192.78Z" style="vector-effect: non-scaling-stroke; opacity: 1; stroke-width: 0px; fill: rgb(171, 99, 250); fill-opacity: 1;"/></g><g class="point"><path d="M166.88,178.07V163.36H178.9V178.07Z" style="vector-effect: non-scaling-stroke; opacity: 1; stroke-width: 0px; fill: rgb(171, 99, 250); fill-opacity: 1;"/></g><g class="point"><path d="M178.9,197.69V197.69H190.91V197.69Z" style="vector-effect: non-scaling-stroke; opacity: 1; stroke-width: 0px; fill: rgb(171, 99, 250); fill-opacity: 1;"/></g><g class="point"><path d="M190.91,207.49V197.69H202.93V207.49Z" style="vector-effect: non-scaling-stroke; opacity: 1; stroke-width: 0px; fill: rgb(171, 99, 250); fill-opacity: 1;"/></g><g class="point"><path d="M202.93,168.26V163.36H214.95V168.26Z" style="vector-effect: non-scaling-stroke; opacity: 1; stroke-width: 0px; fill: rgb(171, 99, 250); fill-opacity: 1;"/></g><g class="point"><path d="M214.95,202.59V192.78H226.96V202.59Z" style="vector-effect: non-scaling-stroke; opacity: 1; stroke-width: 0px; fill: rgb(171, 99, 250); fill-opacity: 1;"/></g><g class="point"><path d="M226.96,187.88V178.07H238.98V187.88Z" style="vector-effect: non-scaling-stroke; opacity: 1; stroke-width: 0px; fill: rgb(171, 99, 250); fill-opacity: 1;"/></g><g class="point"><path d="M238.98,168.26V143.75H250.99V168.26Z" style="vector-effect: non-scaling-stroke; opacity: 1; stroke-width: 0px; fill: rgb(171, 99, 250); fill-opacity: 1;"/></g><g class="point"><path d="M250.99,168.26V148.65H263.01V168.26Z" style="vector-effect: non-scaling-stroke; opacity: 1; stroke-width: 0px; fill: rgb(171, 99, 250); fill-opacity: 1;"/></g><g class="point"><path d="M263.01,153.55V119.23H275.02V153.55Z" style="vector-effect: non-scaling-stroke; opacity: 1; stroke-width: 0px; fill: rgb(171, 99, 250); fill-opacity: 1;"/></g><g class="point"><path d="M275.02,163.36V99.62H287.04V163.36Z" style="vector-effect: non-scaling-stroke; opacity: 1; stroke-width: 0px; fill: rgb(171, 99, 250); fill-opacity: 1;"/></g><g class="point"><path d="M287.04,138.84V89.81H299.05V138.84Z" style="vector-effect: non-scaling-stroke; opacity: 1; stroke-width: 0px; fill: rgb(171, 99, 250); fill-opacity: 1;"/></g><g class="point"><path d="M299.05,133.94V99.62H311.07V133.94Z" style="vector-effect: non-scaling-stroke; opacity: 1; stroke-width: 0px; fill: rgb(171, 99, 250); fill-opacity: 1;"/></g><g class="point"><path d="M311.07,99.62V45.68H323.09V99.62Z" style="vector-effect: non-scaling-stroke; opacity: 1; stroke-width: 0px; fill: rgb(171, 99, 250); fill-opacity: 1;"/></g><g class="point"><path d="M323.09,114.33V55.49H335.1V114.33Z" style="vector-effect: non-scaling-stroke; opacity: 1; stroke-width: 0px; fill: rgb(171, 99, 250); fill-opacity: 1;"/></g><g class="point"><path d="M335.1,104.52V11.36H347.12V104.52Z" style="vector-effect: non-scaling-stroke; opacity: 1; stroke-width: 0px; fill: rgb(171, 99, 250); fill-opacity: 1;"/></g><g class="point"><path d="M347.12,114.33V70.2H359.13V114.33Z" style="vector-effect: non-scaling-stroke; opacity: 1; stroke-width: 0px; fill: rgb(171, 99, 250); fill-opacity: 1;"/></g><g class="point"><path d="M359.13,84.91V50.58H371.15V84.91Z" style="vector-effect: non-scaling-stroke; opacity: 1; stroke-width: 0px; fill: rgb(171, 99, 250); fill-opacity: 1;"/></g><g class="point"><path d="M371.15,129.04V80H383.16V129.04Z" style="vector-effect: non-scaling-stroke; opacity: 1; stroke-width: 0px; fill: rgb(171, 99, 250); fill-opacity: 1;"/></g><g class="point"><path d="M383.16,138.84V129.04H395.18V138.84Z" style="vector-effect: non-scaling-stroke; opacity: 1; stroke-width: 0px; fill: rgb(171, 99, 250); fill-opacity: 1;"/></g><g class="point"><path d="M395.18,148.65V138.84H407.19V148.65Z" style="vector-effect: non-scaling-stroke; opacity: 1; stroke-width: 0px; fill: rgb(171, 99, 250); fill-opacity: 1;"/></g><g class="point"><path d="M407.19,65.29V45.68H419.21V65.29Z" style="vector-effect: non-scaling-stroke; opacity: 1; stroke-width: 0px; fill: rgb(171, 99, 250); fill-opacity: 1;"/></g><g class="point"><path d="M419.21,124.13V124.13H431.23V124.13Z" style="vector-effect: non-scaling-stroke; opacity: 1; stroke-width: 0px; fill: rgb(171, 99, 250); fill-opacity: 1;"/></g><g class="point"><path d="M431.23,143.75V143.75H443.24V143.75Z" style="vector-effect: non-scaling-stroke; opacity: 1; stroke-width: 0px; fill: rgb(171, 99, 250); fill-opacity: 1;"/></g><g class="point"><path d="M443.24,178.07V163.36H455.26V178.07Z" style="vector-effect: non-scaling-stroke; opacity: 1; stroke-width: 0px; fill: rgb(171, 99, 250); fill-opacity: 1;"/></g><g class="point"><path d="M455.26,202.59V197.69H467.27V202.59Z" style="vector-effect: non-scaling-stroke; opacity: 1; stroke-width: 0px; fill: rgb(171, 99, 250); fill-opacity: 1;"/></g></g></g></g></g><g class="overplot"/><path class="xlines-above crisp" style="fill: none;" d="M0,0"/><path class="ylines-above crisp" style="fill: none;" d="M0,0"/><g class="overlines-above"/><g class="xaxislayer-above"><g class="xtick"><text text-anchor="middle" x="0" y="383" transform="translate(105.7,0)" style="font-family: 'Open Sans', verdana, arial, sans-serif; font-size: 12px; fill: rgb(42, 63, 95); fill-opacity: 1; white-space: pre;">−20</text></g><g class="xtick"><text text-anchor="middle" x="0" y="383" transform="translate(225.86,0)" style="font-family: 'Open Sans', verdana, arial, sans-serif; font-size: 12px; fill: rgb(42, 63, 95); fill-opacity: 1; white-space: pre;">0</text></g><g class="xtick"><text text-anchor="middle" x="0" y="383" transform="translate(346.01,0)" style="font-family: 'Open Sans', verdana, arial, sans-serif; font-size: 12px; fill: rgb(42, 63, 95); fill-opacity: 1; white-space: pre;">20</text></g><g class="xtick"><text text-anchor="middle" x="0" y="383" transform="translate(466.17,0)" style="font-family: 'Open Sans', verdana, arial, sans-serif; font-size: 12px; fill: rgb(42, 63, 95); fill-opacity: 1; white-space: pre;">40</text></g><g class="xtick"><text text-anchor="middle" x="0" y="383" transform="translate(586.3199999999999,0)" style="font-family: 'Open Sans', verdana, arial, sans-serif; font-size: 12px; fill: rgb(42, 63, 95); fill-opacity: 1; white-space: pre;">60</text></g></g><g class="yaxislayer-above"><g class="ytick"><text text-anchor="end" x="79" y="4.199999999999999" transform="translate(0,370.004)" style="font-family: 'Open Sans', verdana, arial, sans-serif; font-size: 12px; fill: rgb(42, 63, 95); fill-opacity: 1; white-space: pre;">0</text></g><g class="ytick"><text text-anchor="end" x="79" y="4.199999999999999" transform="translate(0,320.964)" style="font-family: 'Open Sans', verdana, arial, sans-serif; font-size: 12px; fill: rgb(42, 63, 95); fill-opacity: 1; white-space: pre;">10</text></g><g class="ytick"><text text-anchor="end" x="79" y="4.199999999999999" transform="translate(0,271.93399999999997)" style="font-family: 'Open Sans', verdana, arial, sans-serif; font-size: 12px; fill: rgb(42, 63, 95); fill-opacity: 1; white-space: pre;">20</text></g><g class="ytick"><text text-anchor="end" x="79" y="4.199999999999999" transform="translate(0,222.894)" style="font-family: 'Open Sans', verdana, arial, sans-serif; font-size: 12px; fill: rgb(42, 63, 95); fill-opacity: 1; white-space: pre;">30</text></g><g class="ytick"><text text-anchor="end" x="79" y="4.199999999999999" transform="translate(0,173.864)" style="font-family: 'Open Sans', verdana, arial, sans-serif; font-size: 12px; fill: rgb(42, 63, 95); fill-opacity: 1; white-space: pre;">40</text></g></g><g class="overaxes-above"/></g><g class="subplot x2y2"><g class="layer-subplot"><g class="shapelayer"/><g class="imagelayer"/></g><g class="gridlayer"><g class="x2"><path class="x2grid crisp" transform="translate(105.7,0)" d="M0,60v79.79399999999998" style="stroke: rgb(255, 255, 255); stroke-opacity: 1; stroke-width: 1px;"/><path class="x2grid crisp" transform="translate(346.01,0)" d="M0,60v79.79399999999998" style="stroke: rgb(255, 255, 255); stroke-opacity: 1; stroke-width: 1px;"/><path class="x2grid crisp" transform="translate(466.17,0)" d="M0,60v79.79399999999998" style="stroke: rgb(255, 255, 255); stroke-opacity: 1; stroke-width: 1px;"/><path class="x2grid crisp" transform="translate(586.3199999999999,0)" d="M0,60v79.79399999999998" style="stroke: rgb(255, 255, 255); stroke-opacity: 1; stroke-width: 1px;"/></g><g class="y2"/></g><g class="zerolinelayer"><path class="x2zl zl crisp" transform="translate(225.86,0)" d="M0,60v79.79399999999998" style="stroke: rgb(255, 255, 255); stroke-opacity: 1; stroke-width: 2px;"/></g><path class="xlines-below"/><path class="ylines-below"/><g class="overlines-below"/><g class="xaxislayer-below"/><g class="yaxislayer-below"/><g class="overaxes-below"/><g class="plot" transform="translate(80, 60)" clip-path="url('#clipb59a5cx2y2plot')"><g class="boxlayer mlayer"><g class="trace boxes" style="opacity: 1;"><path class="box" d="M362.14,72.26V67.38M320.08,74.71V64.93H350.84L362.14,67.38L373.43,64.93H410.2V74.71H373.43L362.14,72.26L350.84,74.71ZM320.08,69.82H205.93M410.2,69.82H482.29M205.93,72.26V67.38M482.29,72.26V67.38" style="vector-effect: non-scaling-stroke; stroke-width: 2px; stroke: rgb(99, 110, 250); stroke-opacity: 1; fill: rgb(99, 110, 250); fill-opacity: 0.5;"/><g class="points"><path class="point" transform="translate(85.78,69.82)" d="M3,0A3,3 0 1,1 0,-3A3,3 0 0,1 3,0Z" style="opacity: 1; stroke-width: 0px; fill: rgb(99, 110, 250); fill-opacity: 1;"/><path class="point" transform="translate(103.8,69.82)" d="M3,0A3,3 0 1,1 0,-3A3,3 0 0,1 3,0Z" style="opacity: 1; stroke-width: 0px; fill: rgb(99, 110, 250); fill-opacity: 1;"/><path class="point" transform="translate(103.8,69.82)" d="M3,0A3,3 0 1,1 0,-3A3,3 0 0,1 3,0Z" style="opacity: 1; stroke-width: 0px; fill: rgb(99, 110, 250); fill-opacity: 1;"/><path class="point" transform="translate(109.81,69.82)" d="M3,0A3,3 0 1,1 0,-3A3,3 0 0,1 3,0Z" style="opacity: 1; stroke-width: 0px; fill: rgb(99, 110, 250); fill-opacity: 1;"/><path class="point" transform="translate(109.81,69.82)" d="M3,0A3,3 0 1,1 0,-3A3,3 0 0,1 3,0Z" style="opacity: 1; stroke-width: 0px; fill: rgb(99, 110, 250); fill-opacity: 1;"/><path class="point" transform="translate(121.82,69.82)" d="M3,0A3,3 0 1,1 0,-3A3,3 0 0,1 3,0Z" style="opacity: 1; stroke-width: 0px; fill: rgb(99, 110, 250); fill-opacity: 1;"/><path class="point" transform="translate(127.83,69.82)" d="M3,0A3,3 0 1,1 0,-3A3,3 0 0,1 3,0Z" style="opacity: 1; stroke-width: 0px; fill: rgb(99, 110, 250); fill-opacity: 1;"/><path class="point" transform="translate(133.84,69.82)" d="M3,0A3,3 0 1,1 0,-3A3,3 0 0,1 3,0Z" style="opacity: 1; stroke-width: 0px; fill: rgb(99, 110, 250); fill-opacity: 1;"/><path class="point" transform="translate(133.84,69.82)" d="M3,0A3,3 0 1,1 0,-3A3,3 0 0,1 3,0Z" style="opacity: 1; stroke-width: 0px; fill: rgb(99, 110, 250); fill-opacity: 1;"/><path class="point" transform="translate(139.85,69.82)" d="M3,0A3,3 0 1,1 0,-3A3,3 0 0,1 3,0Z" style="opacity: 1; stroke-width: 0px; fill: rgb(99, 110, 250); fill-opacity: 1;"/><path class="point" transform="translate(139.85,69.82)" d="M3,0A3,3 0 1,1 0,-3A3,3 0 0,1 3,0Z" style="opacity: 1; stroke-width: 0px; fill: rgb(99, 110, 250); fill-opacity: 1;"/><path class="point" transform="translate(145.86,69.82)" d="M3,0A3,3 0 1,1 0,-3A3,3 0 0,1 3,0Z" style="opacity: 1; stroke-width: 0px; fill: rgb(99, 110, 250); fill-opacity: 1;"/><path class="point" transform="translate(145.86,69.82)" d="M3,0A3,3 0 1,1 0,-3A3,3 0 0,1 3,0Z" style="opacity: 1; stroke-width: 0px; fill: rgb(99, 110, 250); fill-opacity: 1;"/><path class="point" transform="translate(157.87,69.82)" d="M3,0A3,3 0 1,1 0,-3A3,3 0 0,1 3,0Z" style="opacity: 1; stroke-width: 0px; fill: rgb(99, 110, 250); fill-opacity: 1;"/><path class="point" transform="translate(163.88,69.82)" d="M3,0A3,3 0 1,1 0,-3A3,3 0 0,1 3,0Z" style="opacity: 1; stroke-width: 0px; fill: rgb(99, 110, 250); fill-opacity: 1;"/><path class="point" transform="translate(169.89,69.82)" d="M3,0A3,3 0 1,1 0,-3A3,3 0 0,1 3,0Z" style="opacity: 1; stroke-width: 0px; fill: rgb(99, 110, 250); fill-opacity: 1;"/><path class="point" transform="translate(169.89,69.82)" d="M3,0A3,3 0 1,1 0,-3A3,3 0 0,1 3,0Z" style="opacity: 1; stroke-width: 0px; fill: rgb(99, 110, 250); fill-opacity: 1;"/><path class="point" transform="translate(169.89,69.82)" d="M3,0A3,3 0 1,1 0,-3A3,3 0 0,1 3,0Z" style="opacity: 1; stroke-width: 0px; fill: rgb(99, 110, 250); fill-opacity: 1;"/><path class="point" transform="translate(169.89,69.82)" d="M3,0A3,3 0 1,1 0,-3A3,3 0 0,1 3,0Z" style="opacity: 1; stroke-width: 0px; fill: rgb(99, 110, 250); fill-opacity: 1;"/><path class="point" transform="translate(175.89,69.82)" d="M3,0A3,3 0 1,1 0,-3A3,3 0 0,1 3,0Z" style="opacity: 1; stroke-width: 0px; fill: rgb(99, 110, 250); fill-opacity: 1;"/><path class="point" transform="translate(175.89,69.82)" d="M3,0A3,3 0 1,1 0,-3A3,3 0 0,1 3,0Z" style="opacity: 1; stroke-width: 0px; fill: rgb(99, 110, 250); fill-opacity: 1;"/></g></g><g class="trace boxes" style="opacity: 1;"><path class="box" d="M374.15,52.31V47.43M320.08,54.76V44.98H362.11L374.15,47.43L386.2,44.98H416.21V54.76H386.2L374.15,52.31L362.11,54.76ZM320.08,49.87H175.89M416.21,49.87H488.3M175.89,52.31V47.43M488.3,52.31V47.43" style="vector-effect: non-scaling-stroke; stroke-width: 2px; stroke: rgb(239, 85, 59); stroke-opacity: 1; fill: rgb(239, 85, 59); fill-opacity: 0.5;"/><g class="points"><path class="point" transform="translate(91.79,49.87)" d="M3,0A3,3 0 1,1 0,-3A3,3 0 0,1 3,0Z" style="opacity: 1; stroke-width: 0px; fill: rgb(239, 85, 59); fill-opacity: 1;"/><path class="point" transform="translate(97.79,49.87)" d="M3,0A3,3 0 1,1 0,-3A3,3 0 0,1 3,0Z" style="opacity: 1; stroke-width: 0px; fill: rgb(239, 85, 59); fill-opacity: 1;"/><path class="point" transform="translate(121.82,49.87)" d="M3,0A3,3 0 1,1 0,-3A3,3 0 0,1 3,0Z" style="opacity: 1; stroke-width: 0px; fill: rgb(239, 85, 59); fill-opacity: 1;"/><path class="point" transform="translate(127.83,49.87)" d="M3,0A3,3 0 1,1 0,-3A3,3 0 0,1 3,0Z" style="opacity: 1; stroke-width: 0px; fill: rgb(239, 85, 59); fill-opacity: 1;"/><path class="point" transform="translate(127.83,49.87)" d="M3,0A3,3 0 1,1 0,-3A3,3 0 0,1 3,0Z" style="opacity: 1; stroke-width: 0px; fill: rgb(239, 85, 59); fill-opacity: 1;"/><path class="point" transform="translate(133.84,49.87)" d="M3,0A3,3 0 1,1 0,-3A3,3 0 0,1 3,0Z" style="opacity: 1; stroke-width: 0px; fill: rgb(239, 85, 59); fill-opacity: 1;"/><path class="point" transform="translate(133.84,49.87)" d="M3,0A3,3 0 1,1 0,-3A3,3 0 0,1 3,0Z" style="opacity: 1; stroke-width: 0px; fill: rgb(239, 85, 59); fill-opacity: 1;"/><path class="point" transform="translate(139.85,49.87)" d="M3,0A3,3 0 1,1 0,-3A3,3 0 0,1 3,0Z" style="opacity: 1; stroke-width: 0px; fill: rgb(239, 85, 59); fill-opacity: 1;"/><path class="point" transform="translate(145.86,49.87)" d="M3,0A3,3 0 1,1 0,-3A3,3 0 0,1 3,0Z" style="opacity: 1; stroke-width: 0px; fill: rgb(239, 85, 59); fill-opacity: 1;"/><path class="point" transform="translate(145.86,49.87)" d="M3,0A3,3 0 1,1 0,-3A3,3 0 0,1 3,0Z" style="opacity: 1; stroke-width: 0px; fill: rgb(239, 85, 59); fill-opacity: 1;"/><path class="point" transform="translate(151.86,49.87)" d="M3,0A3,3 0 1,1 0,-3A3,3 0 0,1 3,0Z" style="opacity: 1; stroke-width: 0px; fill: rgb(239, 85, 59); fill-opacity: 1;"/><path class="point" transform="translate(157.87,49.87)" d="M3,0A3,3 0 1,1 0,-3A3,3 0 0,1 3,0Z" style="opacity: 1; stroke-width: 0px; fill: rgb(239, 85, 59); fill-opacity: 1;"/><path class="point" transform="translate(157.87,49.87)" d="M3,0A3,3 0 1,1 0,-3A3,3 0 0,1 3,0Z" style="opacity: 1; stroke-width: 0px; fill: rgb(239, 85, 59); fill-opacity: 1;"/><path class="point" transform="translate(163.88,49.87)" d="M3,0A3,3 0 1,1 0,-3A3,3 0 0,1 3,0Z" style="opacity: 1; stroke-width: 0px; fill: rgb(239, 85, 59); fill-opacity: 1;"/><path class="point" transform="translate(169.89,49.87)" d="M3,0A3,3 0 1,1 0,-3A3,3 0 0,1 3,0Z" style="opacity: 1; stroke-width: 0px; fill: rgb(239, 85, 59); fill-opacity: 1;"/></g></g><g class="trace boxes" style="opacity: 1;"><path class="box" d="M257,32.37V27.48M205.93,34.81V25.04H244.84L257,27.48L269.16,25.04H302.06V34.81H269.16L257,32.37L244.84,34.81ZM205.93,29.92H61.75M302.06,29.92H428.22M61.75,32.37V27.48M428.22,32.37V27.48" style="vector-effect: non-scaling-stroke; stroke-width: 2px; stroke: rgb(0, 204, 150); stroke-opacity: 1; fill: rgb(0, 204, 150); fill-opacity: 0.5;"/><g class="points"><path class="point" transform="translate(25.7,29.92)" d="M3,0A3,3 0 1,1 0,-3A3,3 0 0,1 3,0Z" style="opacity: 1; stroke-width: 0px; fill: rgb(0, 204, 150); fill-opacity: 1;"/><path class="point" transform="translate(49.73,29.92)" d="M3,0A3,3 0 1,1 0,-3A3,3 0 0,1 3,0Z" style="opacity: 1; stroke-width: 0px; fill: rgb(0, 204, 150); fill-opacity: 1;"/><path class="point" transform="translate(49.73,29.92)" d="M3,0A3,3 0 1,1 0,-3A3,3 0 0,1 3,0Z" style="opacity: 1; stroke-width: 0px; fill: rgb(0, 204, 150); fill-opacity: 1;"/><path class="point" transform="translate(55.74,29.92)" d="M3,0A3,3 0 1,1 0,-3A3,3 0 0,1 3,0Z" style="opacity: 1; stroke-width: 0px; fill: rgb(0, 204, 150); fill-opacity: 1;"/><path class="point" transform="translate(55.74,29.92)" d="M3,0A3,3 0 1,1 0,-3A3,3 0 0,1 3,0Z" style="opacity: 1; stroke-width: 0px; fill: rgb(0, 204, 150); fill-opacity: 1;"/><path class="point" transform="translate(55.74,29.92)" d="M3,0A3,3 0 1,1 0,-3A3,3 0 0,1 3,0Z" style="opacity: 1; stroke-width: 0px; fill: rgb(0, 204, 150); fill-opacity: 1;"/></g></g><g class="trace boxes" style="opacity: 1;"><path class="box" d="M314.07,12.42V7.53M254,14.86V5.09H302.78L314.07,7.53L325.37,5.09H344.11V14.86H325.37L314.07,12.42L302.78,14.86ZM254,9.97H121.82M344.11,9.97H458.26M121.82,12.42V7.53M458.26,12.42V7.53" style="vector-effect: non-scaling-stroke; stroke-width: 2px; stroke: rgb(171, 99, 250); stroke-opacity: 1; fill: rgb(171, 99, 250); fill-opacity: 0.5;"/><g class="points"><path class="point" transform="translate(37.72,9.97)" d="M3,0A3,3 0 1,1 0,-3A3,3 0 0,1 3,0Z" style="opacity: 1; stroke-width: 0px; fill: rgb(171, 99, 250); fill-opacity: 1;"/><path class="point" transform="translate(73.76,9.97)" d="M3,0A3,3 0 1,1 0,-3A3,3 0 0,1 3,0Z" style="opacity: 1; stroke-width: 0px; fill: rgb(171, 99, 250); fill-opacity: 1;"/><path class="point" transform="translate(103.8,9.97)" d="M3,0A3,3 0 1,1 0,-3A3,3 0 0,1 3,0Z" style="opacity: 1; stroke-width: 0px; fill: rgb(171, 99, 250); fill-opacity: 1;"/><path class="point" transform="translate(103.8,9.97)" d="M3,0A3,3 0 1,1 0,-3A3,3 0 0,1 3,0Z" style="opacity: 1; stroke-width: 0px; fill: rgb(171, 99, 250); fill-opacity: 1;"/><path class="point" transform="translate(109.81,9.97)" d="M3,0A3,3 0 1,1 0,-3A3,3 0 0,1 3,0Z" style="opacity: 1; stroke-width: 0px; fill: rgb(171, 99, 250); fill-opacity: 1;"/><path class="point" transform="translate(115.82,9.97)" d="M3,0A3,3 0 1,1 0,-3A3,3 0 0,1 3,0Z" style="opacity: 1; stroke-width: 0px; fill: rgb(171, 99, 250); fill-opacity: 1;"/><path class="point" transform="translate(115.82,9.97)" d="M3,0A3,3 0 1,1 0,-3A3,3 0 0,1 3,0Z" style="opacity: 1; stroke-width: 0px; fill: rgb(171, 99, 250); fill-opacity: 1;"/></g></g></g></g><g class="overplot"/><path class="xlines-above crisp" style="fill: none;" d="M0,0"/><path class="ylines-above crisp" style="fill: none;" d="M0,0"/><g class="overlines-above"/><g class="xaxislayer-above"/><g class="yaxislayer-above"/><g class="overaxes-above"/></g></g><g class="polarlayer"/><g class="ternarylayer"/><g class="geolayer"/><g class="funnelarealayer"/><g class="pielayer"/><g class="treemaplayer"/><g class="sunburstlayer"/><g class="glimages"/><defs id="topdefs-b59a5c"><g class="clips"/><clipPath id="legendb59a5c"><rect width="84" height="102" x="0" y="0"/></clipPath></defs><g class="layer-above"><g class="imagelayer"/><g class="shapelayer"/></g><g class="infolayer"><g class="legend" pointer-events="all" transform="translate(604.28, 60)"><rect class="bg" shape-rendering="crispEdges" style="stroke: rgb(68, 68, 68); stroke-opacity: 1; fill: rgb(255, 255, 255); fill-opacity: 1; stroke-width: 0px;" width="84" height="102" x="0" y="0"/><g class="scrollbox" transform="translate(0, 0)" clip-path="url('#legendb59a5c')"><text class="legendtitletext user-select-none" text-anchor="start" x="2" y="15.600000000000001" style="font-family: 'Open Sans', verdana, arial, sans-serif; font-size: 12px; fill: rgb(42, 63, 95); fill-opacity: 1; white-space: pre;">method</text><g class="groups" transform="translate(0, 0)"><g class="traces" transform="translate(0, 30.1)" style="opacity: 1;"><text class="legendtext user-select-none" text-anchor="start" x="40" y="4.680000000000001" style="font-family: 'Open Sans', verdana, arial, sans-serif; font-size: 12px; fill: rgb(42, 63, 95); fill-opacity: 1; white-space: pre;">basicA</text><g class="layers" style="opacity: 1;"><g class="legendfill"/><g class="legendlines"/><g class="legendsymbols"><g class="legendpoints"><path class="legendundefined" d="M6,6H-6V-6H6Z" transform="translate(20,0)" style="stroke-width: 0px; fill: rgb(99, 110, 250); fill-opacity: 1;"/></g></g></g><rect class="legendtoggle" pointer-events="all" x="0" y="-9.5" width="78.71875" height="19" style="cursor: pointer; fill: rgb(0, 0, 0); fill-opacity: 0;"/></g></g><g class="groups" transform="translate(0, 0)"><g class="traces" transform="translate(0, 49.1)" style="opacity: 1;"><text class="legendtext user-select-none" text-anchor="start" x="40" y="4.680000000000001" style="font-family: 'Open Sans', verdana, arial, sans-serif; font-size: 12px; fill: rgb(42, 63, 95); fill-opacity: 1; white-space: pre;">basicB</text><g class="layers" style="opacity: 1;"><g class="legendfill"/><g class="legendlines"/><g class="legendsymbols"><g class="legendpoints"><path class="legendundefined" d="M6,6H-6V-6H6Z" transform="translate(20,0)" style="stroke-width: 0px; fill: rgb(239, 85, 59); fill-opacity: 1;"/></g></g></g><rect class="legendtoggle" pointer-events="all" x="0" y="-9.5" width="78.71875" height="19" style="cursor: pointer; fill: rgb(0, 0, 0); fill-opacity: 0;"/></g></g><g class="groups" transform="translate(0, 0)"><g class="traces" transform="translate(0, 68.1)" style="opacity: 1;"><text class="legendtext user-select-none" text-anchor="start" x="40" y="4.680000000000001" style="font-family: 'Open Sans', verdana, arial, sans-serif; font-size: 12px; fill: rgb(42, 63, 95); fill-opacity: 1; white-space: pre;">enhA</text><g class="layers" style="opacity: 1;"><g class="legendfill"/><g class="legendlines"/><g class="legendsymbols"><g class="legendpoints"><path class="legendundefined" d="M6,6H-6V-6H6Z" transform="translate(20,0)" style="stroke-width: 0px; fill: rgb(0, 204, 150); fill-opacity: 1;"/></g></g></g><rect class="legendtoggle" pointer-events="all" x="0" y="-9.5" width="78.71875" height="19" style="cursor: pointer; fill: rgb(0, 0, 0); fill-opacity: 0;"/></g></g><g class="groups" transform="translate(0, 0)"><g class="traces" transform="translate(0, 87.1)" style="opacity: 1;"><text class="legendtext user-select-none" text-anchor="start" x="40" y="4.680000000000001" style="font-family: 'Open Sans', verdana, arial, sans-serif; font-size: 12px; fill: rgb(42, 63, 95); fill-opacity: 1; white-space: pre;">enhB</text><g class="layers" style="opacity: 1;"><g class="legendfill"/><g class="legendlines"/><g class="legendsymbols"><g class="legendpoints"><path class="legendundefined" d="M6,6H-6V-6H6Z" transform="translate(20,0)" style="stroke-width: 0px; fill: rgb(171, 99, 250); fill-opacity: 1;"/></g></g></g><rect class="legendtoggle" pointer-events="all" x="0" y="-9.5" width="78.71875" height="19" style="cursor: pointer; fill: rgb(0, 0, 0); fill-opacity: 0;"/></g></g></g><rect class="scrollbar" rx="20" ry="3" width="0" height="0" style="fill: rgb(128, 139, 164); fill-opacity: 1;" x="0" y="0"/></g><g class="g-gtitle"/><g class="g-xtitle"><text class="xtitle" x="337" y="410.3" text-anchor="middle" style="font-family: 'Open Sans', verdana, arial, sans-serif; font-size: 14px; fill: rgb(42, 63, 95); opacity: 1; font-weight: normal; white-space: pre;">distance</text></g><g class="g-x2title"/><g class="g-ytitle"><text class="ytitle" transform="rotate(-90,38.934375,256.447)" x="38.934375" y="256.447" text-anchor="middle" style="font-family: 'Open Sans', verdana, arial, sans-serif; font-size: 14px; fill: rgb(42, 63, 95); opacity: 1; font-weight: normal; white-space: pre;">count</text></g><g class="g-y2title"/></g></svg>