<?xml version="1.0" encoding="UTF-8" standalone="no"?>
<!-- Generator: Adobe Illustrator 27.0.0, SVG Export Plug-In . SVG Version: 6.00 Build 0) -->

<svg
   version="1.1"
   id="Layer_1"
   x="0px"
   y="0px"
   viewBox="0 0 155 36"
   style="enable-background:new 0 0 155 36;"
   xml:space="preserve"
   sodipodi:docname="nalej.svg"
   inkscape:version="1.2.2 (b0a8486541, 2022-12-01)"
   xmlns:inkscape="http://www.inkscape.org/namespaces/inkscape"
   xmlns:sodipodi="http://sodipodi.sourceforge.net/DTD/sodipodi-0.dtd"
   xmlns="http://www.w3.org/2000/svg"
   xmlns:svg="http://www.w3.org/2000/svg"><defs
   id="defs32" /><sodipodi:namedview
   id="namedview30"
   pagecolor="#ffffff"
   bordercolor="#666666"
   borderopacity="1.0"
   inkscape:showpageshadow="2"
   inkscape:pageopacity="0.0"
   inkscape:pagecheckerboard="0"
   inkscape:deskcolor="#d1d1d1"
   showgrid="false"
   inkscape:zoom="8.4129032"
   inkscape:cx="67.396472"
   inkscape:cy="17.94862"
   inkscape:window-width="2560"
   inkscape:window-height="1385"
   inkscape:window-x="0"
   inkscape:window-y="31"
   inkscape:window-maximized="1"
   inkscape:current-layer="Layer_1" /> <style
   type="text/css"
   id="style2"> .st0{fill:url(#SVGID_1_);} .st1{fill:#FFFFFF;} .st2{fill:#0B132B;} .st3{font-family:'Lato-Bold';} .st4{font-size:6.92px;} </style> <g
   inkscape:groupmode="layer"
   id="layer1"
   inkscape:label="background"
   sodipodi:insensitive="true"><rect
     style="fill:#1a1a1a;fill-opacity:0.499293;stroke:none"
     id="rect1400"
     width="155.01407"
     height="35.522709"
     x="0.17837009"
     y="0.28338543" /></g><g
   id="Layer_2_00000025433470212042469850000008579211658165449143_"
   transform="translate(-1.9317236,44.245273)"> <g
   id="Layer_1-2"
   transform="translate(2.0994943,-44.640403)"> <linearGradient
   id="SVGID_1_"
   gradientUnits="userSpaceOnUse"
   x1="9.6742001"
   y1="-1.2970999"
   x2="39.7742"
   y2="28.812901"
   gradientTransform="matrix(1,0,0,-1,0,38)"> <stop
   offset="0"
   style="stop-color:#0B132B"
   id="stop4" /> <stop
   offset="0.33"
   style="stop-color:#3A506B"
   id="stop6" /> <stop
   offset="0.66"
   style="stop-color:#0E39C1"
   id="stop8" /> <stop
   offset="1"
   style="stop-color:#3F41FF"
   id="stop10" /> </linearGradient> <path
   class="st0"
   d="m 30.3,16.7 c 0.8,-1 1.8,-1.8 2.9,-2.4 -1.3,-3 -2.3,-7.5 -8.2,-7.5 -1.7,0 -3.3,0.8 -4.5,2 -0.8,0.7 -1.9,1 -2.9,0.7 L 14.2,8.4 C 16.2,2.6 20.7,1 25,1 c 4.7,0 8.7,2.6 11.7,7.6 0.9,1.5 1.7,3.2 2.3,4.9 2.5,0.1 4.9,1 7,2.3 2.7,2 4.3,5.2 4.1,8.6 0,3.6 -1,6.4 -3,8.4 C 45,35 41.8,36 37.6,36 32.5,36 27.8,31 22.8,25.6 19.4,21.8 15,17 12.4,17 10.7,16.9 9,17.5 7.6,18.5 c -1.2,1.1 -1.8,2.8 -1.8,5.1 0,4.8 1.9,6.6 6.6,6.6 h 9.1 c 1.8,0 3.3,1.5 3.3,3.3 V 36 H 12.4 C 4.4,36 0,31.6 0,23.7 c 0,-5 2,-7.9 3.7,-9.4 2.4,-2 5.5,-3.1 8.6,-3 5.1,0 9.8,5.1 14.7,10.4 3.5,3.8 9.2,8.4 11,8.5 2.6,0.1 4,-0.5 5.1,-1.5 1,-1.2 1.5,-2.8 1.3,-4.4 0,-3.5 -2.8,-5.6 -5.9,-5.6 -0.8,0.1 -1.6,0.3 -2.3,0.6 -1.1,0.5 -2.4,0.3 -3.3,-0.5 z"
   id="path13"
   style="fill:url(#SVGID_1_)" /> <path
   class="st1"
   d="m 67.2,8 c 0.1,0 0.3,0.1 0.4,0.1 0.1,0.1 0.2,0.1 0.3,0.2 0.1,0.1 0.3,0.2 0.4,0.4 l 9.9,12.5 v 0 l -0.1,-1.1 c 0,-0.4 0,-0.7 0,-1.1 V 8 h 4.3 v 20.9 h -2.6 c -0.3,0 -0.7,0 -1,-0.2 -0.3,-0.1 -0.5,-0.4 -0.7,-0.6 L 68.3,15.6 c 0,0.4 0,0.7 0.1,1.1 0.1,0.4 0,0.7 0,1 V 28.9 H 64.2 V 8 h 2.6 c 0,0 0.2,0 0.4,0 z"
   id="path15" /> <path
   class="st1"
   d="m 105.2,28.9 h -3.8 c -0.4,0 -0.7,-0.1 -1,-0.3 -0.3,-0.2 -0.5,-0.4 -0.6,-0.8 l -1.2,-3.6 h -8 l -1.2,3.6 c -0.1,0.3 -0.3,0.5 -0.6,0.7 -0.3,0.2 -0.6,0.3 -1,0.3 H 84 L 92.2,8 h 5 z m -13.4,-8 h 5.7 l -1.9,-5.7 c -0.1,-0.4 -0.3,-0.8 -0.4,-1.3 -0.1,-0.5 -0.3,-1 -0.5,-1.6 v 0 c -0.2,0.6 -0.3,1.1 -0.5,1.6 -0.2,0.5 -0.3,0.9 -0.5,1.3 z"
   id="path17" /> <path
   class="st1"
   d="m 111.8,25 h 7.8 v 3.9 H 107 V 8 h 4.9 v 17 z"
   id="path19" /> <path
   class="st1"
   d="m 135.3,8 v 3.7 h -8.6 v 4.9 h 6.6 v 3.6 h -6.6 v 5 h 8.6 v 3.7 H 121.8 V 8 Z"
   id="path21" /> <path
   class="st1"
   d="m 147,21.3 c 0,1.1 -0.1,2.1 -0.4,3.2 -0.3,0.9 -0.7,1.8 -1.3,2.5 -0.6,0.7 -1.4,1.2 -2.2,1.6 -1,0.4 -2.1,0.6 -3.1,0.6 -0.5,0 -1.1,0 -1.6,-0.1 -0.6,-0.1 -1.1,-0.2 -1.7,-0.3 L 137,26 c 0,-0.2 0.1,-0.5 0.3,-0.6 0.2,-0.2 0.5,-0.2 0.7,-0.2 0.2,0 0.4,0 0.6,0.1 0.3,0.1 0.6,0.1 0.9,0.1 0.4,0 0.8,-0.1 1.2,-0.2 0.3,-0.1 0.6,-0.3 0.9,-0.6 0.3,-0.4 0.4,-0.8 0.5,-1.2 0.1,-0.6 0.2,-1.2 0.2,-1.8 V 8 h 4.9 v 13.3 z"
   id="path23" /> <text
   transform="translate(149.61,5.98)"
   class="st2 st3 st4"
   id="text25">®</text> </g> </g> </svg>
